<svg xmlns="http://www.w3.org/2000/svg" viewBox="0 0 8.82 8.82"><defs><style>.cls-1{fill:#6c6c6c;}</style></defs><title>setttings</title><g id="Layer_2" data-name="Layer 2"><g id="Layer_4" data-name="Layer 4"><path class="cls-1" d="M7.4,5.49,8.82,5V3.83L7.39,3.31l-.1-.25.64-1.37L7.12.88l-1.38.64-.25-.1L5,0H3.83L3.3,1.43l-.24.1L1.69.9l-.8.81.64,1.38-.1.25L0,3.86V5l1.43.52.1.24L.9,7.14l.81.8L3.09,7.3l.25.1.52,1.42H5l.52-1.43.24-.1,1.37.64.8-.8L7.3,5.74C7.34,5.65,7.37,5.57,7.4,5.49Zm-3,.81A1.89,1.89,0,1,1,6.3,4.41,1.89,1.89,0,0,1,4.41,6.3Z"/></g></g></svg>